<svg xmlns="http://www.w3.org/2000/svg" viewBox="0 0 1124.78 415.74"><title>Asset 1</title><g id="Layer_2" data-name="Layer 2"><g id="Layer_1-2" data-name="Layer 1"><path d="M196.58,302.94q0,26.18-7.84,46.48a101.75,101.75,0,0,1-21.47,34.49,92.43,92.43,0,0,1-32,21.67,102,102,0,0,1-39,7.48A121.07,121.07,0,0,1,40.88,400.2Q15.56,387.38,0,366.19l24-27.25a87.81,87.81,0,0,0,32.26,28.43q19.47,10,39.51,10.06,26.73,0,44.84-18.88t18.15-54q0-16.71-5.54-29.51a78.55,78.55,0,0,0-15-22.84,117.76,117.76,0,0,0-21.41-17.84,257.15,257.15,0,0,0-25.32-14.5,245.75,245.75,0,0,1-30.59-17.57,122.92,122.92,0,0,1-25.31-22.57A103.49,103.49,0,0,1,18,149.38q-6.66-17.55-6.63-40.93,0-27.27,8.4-47.59T42.39,26.93a93,93,0,0,1,32-20.29A105.43,105.43,0,0,1,111.73,0q26.71,0,48.15,9.24A86.84,86.84,0,0,1,195.75,38l-24,27.25Q160.67,49,145.64,42.07a77.3,77.3,0,0,0-32.83-7A67.05,67.05,0,0,0,89.7,39.22,55.42,55.42,0,0,0,69.36,52.29q-8.91,8.9-14.49,22.81t-5.61,32.84q0,16.69,5,28.95a72.87,72.87,0,0,0,13.62,21.72,97.23,97.23,0,0,0,20,16.73,265.23,265.23,0,0,0,23.65,13.38,312.54,312.54,0,0,1,30.88,17.85A145.36,145.36,0,0,1,169.94,230a103.2,103.2,0,0,1,19.45,31.2Q196.61,279,196.58,302.94Z"/><path d="M460.65,116.72q0,27.28-8.12,48.15t-21.47,34.77a89.9,89.9,0,0,1-30.92,21.12,94.61,94.61,0,0,1-36.47,7.2l-57.9-.06-.18,175.92-38.42,0,.42-394.15,93,.1a129.24,129.24,0,0,1,35.07,5A83.57,83.57,0,0,1,427.9,32.35q14.46,12.54,23.62,33.15T460.65,116.72Zm-38.41.25q0-19.43-5-33.57t-13.9-23a55.46,55.46,0,0,0-20.3-13.06,72.11,72.11,0,0,0-24.77-4.18L306,43.07l-.16,151.43,52.89.05q26.16,0,44.83-19.09T422.24,117Z"/><path d="M403.87,400.16q-9.66,0-14.11-6.68T385.31,374V341.52c0-7.43-1-12.34-2.88-14.76a9,9,0,0,0-7.33-3.61V312.38a9,9,0,0,0,7.33-3.62q2.88-3.61,2.88-14.75V261.54q0-12.81,4.45-19.49t14.11-6.68h9.46v10h-6.49q-5.94,0-8,4.55c-1.37,3-2,7.08-2,12.15v33.59a39.82,39.82,0,0,1-1,9.74,20.92,20.92,0,0,1-2.69,6.5,13.5,13.5,0,0,1-3.8,3.9,11.62,11.62,0,0,1-4.18,1.76V318a11.44,11.44,0,0,1,4.18,1.76,13.5,13.5,0,0,1,3.8,3.9,21,21,0,0,1,2.69,6.49,40,40,0,0,1,1,9.75v33.58c0,5.08.67,9.13,2,12.16s4,4.55,8,4.55h6.49v10Z"/><path d="M500.92,275.45a44.42,44.42,0,0,1-2.69,16.06,34.55,34.55,0,0,1-7.15,11.59,30,30,0,0,1-10.29,7.06,31.77,31.77,0,0,1-12.16,2.41h-19.3v58.64h-12.8V239.83h31a42.82,42.82,0,0,1,11.69,1.67A27.78,27.78,0,0,1,490,247.34a31,31,0,0,1,7.89,11Q500.92,265.25,500.92,275.45Zm-12.81.1a33.46,33.46,0,0,0-1.67-11.19,20.16,20.16,0,0,0-4.63-7.67,18.51,18.51,0,0,0-6.78-4.34,23.79,23.79,0,0,0-8.26-1.39H449.33v50.47H467a20.11,20.11,0,0,0,14.94-6.38Q488.11,288.68,488.11,275.55Z"/><path d="M537.66,281.76a16.91,16.91,0,0,1,12.25-5.38,10.13,10.13,0,0,1,2.23.19l-.37,12.62a11.94,11.94,0,0,0-1.4-.28,11.67,11.67,0,0,0-1.57-.09,12.21,12.21,0,0,0-8.26,3.15,25,25,0,0,0-6,8.17,45.47,45.47,0,0,0-3.62,11.41,68,68,0,0,0-1.21,12.71v46.95H517.44V302.36c0-2,0-4.11-.1-6.4s-.12-4.52-.18-6.68-.13-4.14-.19-5.94-.15-3.18-.28-4.17h11.88c.25,2.35.43,5.28.56,8.81s.18,7.27.18,11.23h.37Q532.28,287.15,537.66,281.76Z"/><path d="M625.06,325.37a82.22,82.22,0,0,1-2.22,19.86,53,53,0,0,1-6.31,15.4,29.62,29.62,0,0,1-10.12,10A26.15,26.15,0,0,1,593,374.18a25.67,25.67,0,0,1-13.36-3.53,30.59,30.59,0,0,1-10.11-10,51.23,51.23,0,0,1-6.41-15.4,82.22,82.22,0,0,1-2.22-19.86,87.88,87.88,0,0,1,2.13-20,50.88,50.88,0,0,1,6.22-15.59,29.51,29.51,0,0,1,10.11-10A26.53,26.53,0,0,1,593,276.2a26.14,26.14,0,0,1,13.45,3.52,29.62,29.62,0,0,1,10.12,10,53,53,0,0,1,6.31,15.59A84.47,84.47,0,0,1,625.06,325.37Zm-12.62-.28a90.54,90.54,0,0,0-1.2-15.18,46.89,46.89,0,0,0-3.62-12.12,22.83,22.83,0,0,0-6-8.05,13.17,13.17,0,0,0-8.63-3,13.53,13.53,0,0,0-8.72,3,21.29,21.29,0,0,0-6,8.05,49,49,0,0,0-3.53,12.12,90.54,90.54,0,0,0-1.2,15.18,87.18,87.18,0,0,0,1.2,15,50.68,50.68,0,0,0,3.53,12,20.32,20.32,0,0,0,6,8.05,14.68,14.68,0,0,0,17.44,0,20.51,20.51,0,0,0,6-8.05,51.15,51.15,0,0,0,3.53-12A87.18,87.18,0,0,0,612.44,325.09Z"/><path d="M711.54,325.37A97.09,97.09,0,0,1,709.68,345a52.25,52.25,0,0,1-5.57,15.4A29.41,29.41,0,0,1,695,370.56a22.09,22.09,0,0,1-12.62,3.62,20,20,0,0,1-14-5.2,27.57,27.57,0,0,1-7.89-13.55h-.18v60.31H648.07V279.17H660v16.51h.37a31.43,31.43,0,0,1,7.42-14q5.19-5.48,14.66-5.47a21.44,21.44,0,0,1,12.34,3.71,30.18,30.18,0,0,1,9.19,10.2,54.56,54.56,0,0,1,5.66,15.5A93.42,93.42,0,0,1,711.54,325.37ZM698.92,325a93.73,93.73,0,0,0-1.12-14.94,46.29,46.29,0,0,0-3.52-12.15,22.8,22.8,0,0,0-6-8.17,14,14,0,0,0-17.26,0,23.7,23.7,0,0,0-6.13,8.17,46.57,46.57,0,0,0-3.71,12.15A88,88,0,0,0,660,325a90.77,90.77,0,0,0,1.2,15.22,45.18,45.18,0,0,0,3.71,12.15,23.11,23.11,0,0,0,6.22,8.07,13.89,13.89,0,0,0,17.17,0,22.74,22.74,0,0,0,6-8.07,45,45,0,0,0,3.52-12.15A96.72,96.72,0,0,0,698.92,325Z"/><path d="M741.22,327.78a70.09,70.09,0,0,0,1.31,14,41.16,41.16,0,0,0,3.82,11.14,20.82,20.82,0,0,0,6.34,7.42,15.29,15.29,0,0,0,9,2.69A14.65,14.65,0,0,0,772.55,359a27.91,27.91,0,0,0,6.34-9.83l9.28,5.38a35.63,35.63,0,0,1-9.93,14q-6.59,5.66-16.79,5.66-15.41,0-23.94-13T729,325.37a84.15,84.15,0,0,1,2.21-19.85,51.13,51.13,0,0,1,6.39-15.59,31.15,31.15,0,0,1,10.17-10.11,27.68,27.68,0,0,1,27.2-.1,27,27,0,0,1,9.16,9.65,46.12,46.12,0,0,1,5.09,14.29,92.12,92.12,0,0,1,1.57,17.44v6.68Zm37.3-10.2q0-13.92-4.29-22.36t-13.43-8.45a13.1,13.1,0,0,0-9,3.25,26.18,26.18,0,0,0-6,8,39.65,39.65,0,0,0-3.35,10.11,50.94,50.94,0,0,0-1,9.47Z"/><path d="M834,281.76a16.89,16.89,0,0,1,12.24-5.38,10.06,10.06,0,0,1,2.23.19l-.37,12.62a12.22,12.22,0,0,0-1.39-.28,11.83,11.83,0,0,0-1.58-.09,12.23,12.23,0,0,0-8.26,3.15,25.13,25.13,0,0,0-6,8.17,45.88,45.88,0,0,0-3.62,11.41,68.84,68.84,0,0,0-1.2,12.71v46.95H813.78V302.36q0-3-.09-6.4t-.19-6.68q-.09-3.24-.19-5.94t-.27-4.17h11.87c.25,2.35.44,5.28.56,8.81s.19,7.27.19,11.23H826Q828.63,287.15,834,281.76Z"/><path d="M888.75,372.88a25.4,25.4,0,0,1-6.13.74q-9.64,0-13.64-6.68t-4-17.81V289.19H852.93v-10h11.88V253.74h12.06v25.43H893.2v10H876.87V346.9c0,5.56.8,9.62,2.41,12.15a8,8,0,0,0,7.24,3.81,14.61,14.61,0,0,0,3.53-.47,20.51,20.51,0,0,0,3.15-1l.56,9.84A30.19,30.19,0,0,1,888.75,372.88Z"/><path d="M924.56,251a8.83,8.83,0,0,1-2.41,6.4,7.73,7.73,0,0,1-5.75,2.51,7.63,7.63,0,0,1-5.85-2.51,9,9,0,0,1-2.32-6.4,9.13,9.13,0,0,1,2.32-6.31,7.87,7.87,0,0,1,11.69,0A9.13,9.13,0,0,1,924.56,251ZM910.27,371.21v-92h12.25v92Z"/><path d="M957.77,327.78a70.09,70.09,0,0,0,1.31,14,41.16,41.16,0,0,0,3.82,11.14,20.82,20.82,0,0,0,6.34,7.42,15.29,15.29,0,0,0,9,2.69A14.65,14.65,0,0,0,989.1,359a27.91,27.91,0,0,0,6.34-9.83l9.28,5.38a35.61,35.61,0,0,1-9.92,14q-6.6,5.66-16.8,5.66-15.4,0-23.94-13t-8.53-35.82a83.61,83.61,0,0,1,2.22-19.85,50.87,50.87,0,0,1,6.38-15.59,31.25,31.25,0,0,1,10.17-10.11,27.68,27.68,0,0,1,27.2-.1,26.9,26.9,0,0,1,9.16,9.65,45.87,45.87,0,0,1,5.09,14.29,92.12,92.12,0,0,1,1.57,17.44v6.68Zm37.31-10.2q0-13.92-4.3-22.36t-13.42-8.45a13.12,13.12,0,0,0-9.05,3.25,26,26,0,0,0-6,8A39.28,39.28,0,0,0,959,308.11a50.94,50.94,0,0,0-1,9.47Z"/><path d="M1064.66,295.12a19.82,19.82,0,0,0-6.22-6.58,16.32,16.32,0,0,0-9.18-2.51,12.35,12.35,0,0,0-9.74,4.36q-3.81,4.37-3.81,11.42,0,7.41,3.71,10.76c2.48,2.22,6.19,4.27,11.14,6.12a59.52,59.52,0,0,1,7.42,3.62,27.38,27.38,0,0,1,6.59,5.29,26.6,26.6,0,0,1,4.73,7.51,26.89,26.89,0,0,1,1.85,10.49q0,13.54-7.32,21.06t-19,7.52a28.88,28.88,0,0,1-14.29-3.62,31.83,31.83,0,0,1-10.77-9.74l7.43-8a28.59,28.59,0,0,0,7.51,7.88,17.48,17.48,0,0,0,10.3,3.06,13.05,13.05,0,0,0,10.49-4.73q4-4.73,4-12.52A17.15,17.15,0,0,0,1058,339a15.34,15.34,0,0,0-3.9-5.1,26.06,26.06,0,0,0-5.47-3.53c-2-1-4.18-1.91-6.4-2.78a45,45,0,0,1-6.78-3.16,22.58,22.58,0,0,1-5.84-4.82,23,23,0,0,1-4.18-7.14,28.79,28.79,0,0,1-1.58-10.12,28.21,28.21,0,0,1,1.95-10.58,23.89,23.89,0,0,1,5.48-8.25,26.16,26.16,0,0,1,8.07-5.38,24.92,24.92,0,0,1,9.93-1.95,27.89,27.89,0,0,1,13.45,3.06,27.2,27.2,0,0,1,9.19,7.89Z"/><path d="M1086.56,390.14h6.49q5.94,0,8-4.55t2-12.16V339.85a40,40,0,0,1,1-9.75,21.2,21.2,0,0,1,2.69-6.49,13.65,13.65,0,0,1,3.81-3.9,11.4,11.4,0,0,1,4.17-1.76v-.37a11.58,11.58,0,0,1-4.17-1.76,13.65,13.65,0,0,1-3.81-3.9,21.17,21.17,0,0,1-2.69-6.5,39.87,39.87,0,0,1-1-9.74V262.09q0-7.6-2-12.15t-8-4.55h-6.49v-10H1096q9.64,0,14.1,6.68t4.46,19.49V294q0,11.13,2.87,14.75a9,9,0,0,0,7.33,3.62v10.77a9,9,0,0,0-7.33,3.61c-1.91,2.42-2.87,7.33-2.87,14.76V374q0,12.81-4.46,19.49t-14.1,6.68h-9.46Z"/></g></g></svg>